<svg xmlns="http://www.w3.org/2000/svg" viewBox="0 0 213.66 213.66"><title>Logo</title><g id="Ebene_3" data-name="Ebene 3"><polygon points="10.61 10.61 74.53 81.9 106.83 5.9 10.61 10.61" style="fill:#10614b"/><polygon points="93.2 207.9 137.86 147.23 156.53 207.9 93.2 207.9" style="fill:#adcb3a"/><polygon points="5.2 91.9 74.53 81.9 7.86 168.57 5.2 91.9" style="fill:#147372"/><polygon points="156.53 85.23 74.53 81.9 74.53 150.57 156.53 85.23" style="fill:#a8ca57"/><polygon points="170.53 5.9 156.53 85.23 203.05 90.57 203.05 13.23 170.53 5.9" style="fill:#e04d12"/><polygon points="10.61 10.61 74.53 81.9 5.2 91.9 5.2 34.57 10.61 10.61" style="fill:#137557"/><polygon points="106.83 5.9 169.7 10.61 74.53 81.9 106.83 5.9" style="fill:#58b892"/><polygon points="137.86 147.23 156.53 85.23 74.53 150.57 137.86 147.23" style="fill:#a9c92f"/><polygon points="74.53 207.9 74.53 150.57 10.61 165 10.61 197.23 29.86 207.9 74.53 207.9" style="fill:#3e8fc6"/><polygon points="137.86 147.23 156.53 207.9 197.2 203.05 208.53 190.57 208.53 147.23 208.53 133.9 137.86 147.23" style="fill:#e2e030"/><polygon points="74.53 81.9 74.53 150.57 4.07 173.5 74.53 81.9" style="fill:#55b9e6"/><polygon points="156.53 85.23 203.05 133.9 203.05 90.57 156.53 85.23" style="fill:#dd7813"/><polygon points="74.53 81.9 156.53 85.23 173.2 5.9 74.53 81.9" style="fill:#7d913e"/><polygon points="74.53 150.57 93.2 203.05 74.53 203.05 74.53 150.57" style="fill:#256b92"/><polygon points="156.53 85.23 137.86 147.23 203.89 134.78 156.53 85.23" style="fill:#dd8c1f"/><polygon points="74.53 150.57 137.86 147.23 93.2 207.9 74.53 150.57" style="fill:#8db532"/></g><g id="Ebene_2" data-name="Ebene 2"><path d="M503.91,134.43H338a23.9,23.9,0,0,0-21.75,14.09,23.39,23.39,0,0,0-2.13,9.79V324.21A24,24,0,0,0,338,348.09H503.91a23.41,23.41,0,0,0,9.81-2.13,24,24,0,0,0,14.07-21.75V158.32A24,24,0,0,0,503.91,134.43ZM517.18,313.6c0,.42,0,.82,0,1.23v0a23.94,23.94,0,0,1-23.84,22.63H348.63a24,24,0,0,1-23.88-23.88V168.92a23.94,23.94,0,0,1,22.63-23.84h0c.42,0,.82,0,1.23,0H493.3a24,24,0,0,1,23.88,23.88Z" transform="translate(-314.14 -134.43)" style="fill:#383838"/></g></svg>